<?xml version="1.0"?>
<svg xmlns="http://www.w3.org/2000/svg" xmlns:xlink="http://www.w3.org/1999/xlink" xmlns:svgjs="http://svgjs.com/svgjs" version="1.1" width="65" height="65" x="0" y="0" viewBox="0 0 64 64" style="enable-background:new 0 0 512 512" xml:space="preserve" class=""><g><path xmlns="http://www.w3.org/2000/svg" d="m7 5h2v8h-2z" fill="#7370d8" data-original="#000000" style="" class=""/><path xmlns="http://www.w3.org/2000/svg" d="m12 10h3c.553 0 1-.448 1-1v-3c0-.552-.447-1-1-1h-4c-.553 0-1 .448-1 1v7h2zm0-3h2v1h-2z" fill="#7370d8" data-original="#000000" style="" class=""/><path xmlns="http://www.w3.org/2000/svg" d="m18 13h4c.553 0 1-.448 1-1v-6c0-.552-.447-1-1-1h-4c-.553 0-1 .448-1 1v6c0 .552.447 1 1 1zm1-6h2v4h-2z" fill="#7370d8" data-original="#000000" style="" class=""/><path xmlns="http://www.w3.org/2000/svg" d="m6 47c2.599 0 4.717-2.001 4.953-4.539l13.047-13.047 12.293 12.293c.391.391 1.023.391 1.414 0l18.707-18.707h3.172l-2.293 2.293 1.414 1.414 4-4c.391-.391.391-1.023 0-1.414l-4-4-1.414 1.414 2.293 2.293h-3.586c-.266 0-.52.105-.707.293l-18.293 18.293-12.293-12.293c-.391-.391-1.023-.391-1.414 0l-12.722 12.722c-.343-.779-.877-1.472-1.571-1.994v-21.021h17c.553 0 1-.448 1-1v-14c0-.552-.447-1-1-1h-22c-.553 0-1 .448-1 1v36.021c-1.246.938-2 2.416-2 3.979 0 2.757 2.243 5 5 5zm-1.497-7.581c.308-.179.497-.508.497-.864v-35.555h20v12h-17c-.553 0-1 .448-1 1v22.555c0 .356.189.685.497.864.941.548 1.503 1.513 1.503 2.581 0 1.654-1.346 3-3 3s-3-1.346-3-3c0-1.068.562-2.033 1.503-2.581z" fill="#7370d8" data-original="#000000" style="" class=""/><path xmlns="http://www.w3.org/2000/svg" d="m57 27c0-.404-.243-.769-.617-.924s-.804-.069-1.09.217l-4 4c-.188.187-.293.442-.293.707v30h-2v-26c0-.404-.243-.769-.617-.924s-.804-.069-1.09.217l-4 4c-.188.187-.293.442-.293.707v22h-2v-16c0-.552-.447-1-1-1h-4c-.553 0-1 .448-1 1v16h-2v-20c0-.265-.105-.52-.293-.707l-4-4c-.286-.286-.716-.37-1.09-.217-.374.155-.617.52-.617.924v24h-2v-28c0-.404-.243-.769-.617-.924-.373-.154-.803-.069-1.09.217l-4 4c-.188.187-.293.442-.293.707v24h-2v-20c0-.404-.243-.769-.617-.924-.373-.154-.803-.07-1.09.217l-4 4c-.188.187-.293.442-.293.707v16h-2v-11c0-.552-.447-1-1-1h-4c-.553 0-1 .448-1 1v11h-2v2h62v-2h-6zm-4 4.414 2-2v31.586h-2zm-8 8 2-2v23.586h-2zm-8 6.586h2v15h-2zm-8-6.586 2 2v19.586h-2zm-8-2 2-2v25.586h-2zm-8 8 2-2v17.586h-2zm-8 5.586h2v10h-2z" fill="#7370d8" data-original="#000000" style="" class=""/></g></svg>
